<svg xmlns="http://www.w3.org/2000/svg" width="64" height="64" viewBox="0 0 64 64">
  <!-- Larve : ver pâle et segmenté, orienté vers la droite. -->
  <ellipse cx="32" cy="35" rx="27" ry="15" fill="#000" opacity="0.2"/>
  <g fill="#6d7a2e">
    <circle cx="13" cy="32" r="9"/><circle cx="24" cy="32" r="12"/><circle cx="37" cy="32" r="13"/><circle cx="49" cy="32" r="10"/>
  </g>
  <g fill="#d9e59a">
    <circle cx="13" cy="32" r="7"/><circle cx="24" cy="32" r="10"/><circle cx="37" cy="32" r="11"/><circle cx="49" cy="32" r="8"/>
  </g>
  <g fill="none" stroke="#9fae52" stroke-width="2"><path d="M18 25 Q20 32 18 39M30 22 Q33 32 30 42M43 23 Q46 32 43 41"/></g>
  <ellipse cx="34" cy="26" rx="7" ry="3" fill="#fff" opacity="0.5"/>
  <path d="M55 29 L60 27M55 35 L60 37" stroke="#4a5220" stroke-width="2.5" stroke-linecap="round"/>
  <circle cx="53" cy="29" r="1.8" fill="#2a2e10"/><circle cx="53" cy="35" r="1.8" fill="#2a2e10"/>
</svg>
