<svg xmlns="http://www.w3.org/2000/svg" width="64" height="64" viewBox="0 0 64 64">
  <!-- Ravageur : gros xénomorphe trapu aux mandibules énormes, orienté vers la droite. -->
  <g stroke="#2a0d0a" stroke-width="5" stroke-linecap="round">
    <path d="M20 14 L12 4M34 12 L36 2M20 50 L12 60M34 52 L36 62"/>
  </g>
  <ellipse cx="31" cy="35" rx="28" ry="24" fill="#000" opacity="0.2"/>
  <ellipse cx="25" cy="32" rx="21" ry="22" fill="#2a0d0a"/>
  <ellipse cx="25" cy="32" rx="18.5" ry="19.5" fill="#8c2e22"/>
  <g fill="#5e1a12"><ellipse cx="20" cy="32" rx="4" ry="15"/><ellipse cx="31" cy="32" rx="3" ry="13"/></g>
  <ellipse cx="18" cy="20" rx="8" ry="3.5" fill="#e0907f" opacity="0.5"/>
  <circle cx="46" cy="32" r="12" fill="#2a0d0a"/>
  <circle cx="46" cy="32" r="10" fill="#6e2318"/>
  <path d="M52 22 Q64 22 60 32M52 42 Q64 42 60 32" stroke="#f0e2c8" stroke-width="4" fill="none" stroke-linecap="round"/>
  <circle cx="50" cy="27" r="2.2" fill="#ffcc33"/><circle cx="50" cy="37" r="2.2" fill="#ffcc33"/>
</svg>
