<svg xmlns="http://www.w3.org/2000/svg" width="64" height="64" viewBox="0 0 64 64">
  <!-- Reine de la Ruche : énorme reine xénomorphe, abdomen gonflé d'œufs et couronne de piquants, orientée vers la droite. -->
  <ellipse cx="32" cy="34" rx="30" ry="28" fill="#000" opacity="0.2"/>
  <g stroke="#24102a" stroke-width="3.5" stroke-linecap="round">
    <path d="M36 16 L30 3M44 15 L46 2M36 48 L30 61M44 49 L46 62M50 20 L60 12M50 44 L60 52"/>
  </g>
  <ellipse cx="20" cy="32" rx="18" ry="20" fill="#24102a"/>
  <ellipse cx="20" cy="32" rx="16" ry="18" fill="#7b3f86"/>
  <g fill="#d9e59a" stroke="#6d7a2e" stroke-width="1.2">
    <ellipse cx="13" cy="25" rx="4.5" ry="3.5"/><ellipse cx="13" cy="39" rx="4.5" ry="3.5"/><ellipse cx="22" cy="32" rx="4.5" ry="3.5"/>
    <ellipse cx="22" cy="21" rx="3.5" ry="2.8"/><ellipse cx="22" cy="43" rx="3.5" ry="2.8"/>
  </g>
  <ellipse cx="40" cy="32" rx="11" ry="13" fill="#24102a"/>
  <ellipse cx="40" cy="32" rx="9" ry="11" fill="#9b5aa6"/>
  <circle cx="53" cy="32" r="9" fill="#24102a"/>
  <circle cx="53" cy="32" r="7" fill="#6a2f74"/>
  <g fill="#ffcc40" stroke="#7a5200" stroke-width="1">
    <path d="M47 22 L45 14 L50 20 L52 12 L54 20 L59 14 L57 22 Z"/>
    <path d="M47 42 L45 50 L50 44 L52 52 L54 44 L59 50 L57 42 Z"/>
  </g>
  <circle cx="56" cy="28" r="2" fill="#ff4040"/><circle cx="56" cy="36" r="2" fill="#ff4040"/>
  <ellipse cx="16" cy="18" rx="7" ry="2.5" fill="#e8c4ec" opacity="0.5"/>
</svg>
