<svg xmlns="http://www.w3.org/2000/svg" width="64" height="64" viewBox="0 0 64 64">
  <!-- Électroaimant : aimant en fer à cheval entouré d'un anneau de bobinage (ne tourne pas). -->
  <circle cx="32" cy="32" r="21" fill="none" stroke="#3a1420" stroke-width="6"/>
  <circle cx="32" cy="32" r="21" fill="none" stroke="#e06a7e" stroke-width="2.5" stroke-dasharray="4 4"/>
  <path d="M19 18 L19 34 A13 13 0 0 0 45 34 L45 18 L37 18 L37 34 A5 5 0 0 1 27 34 L27 18 Z" fill="#3a1420"/>
  <path d="M21 20 L21 34 A11 11 0 0 0 43 34 L43 20 L39 20 L39 34 A7 7 0 0 1 25 34 L25 20 Z" fill="#d84a62"/>
  <rect x="20" y="14" width="8" height="7" rx="1.5" fill="#e8e8f0"/>
  <rect x="36" y="14" width="8" height="7" rx="1.5" fill="#e8e8f0"/>
  <path d="M24 10 Q32 4 40 10" fill="none" stroke="#ffb3c0" stroke-width="2" stroke-linecap="round"/>
</svg>
